<svg width="374" height="58" viewBox="0 0 374 58" fill="none" xmlns="http://www.w3.org/2000/svg">
<path d="M10.669 45.3387L10.6954 31.8569H12.3312L25.3117 16.4755H38.213L20.7738 36.8433H18.1091L10.669 45.3387ZM0.485131 57V2.96736H11.7243V57H0.485131ZM25.8129 57L13.8878 39.3497L21.3806 31.4084L38.9781 57H25.8129ZM55.2829 57.7651C52.6973 57.7651 50.3932 57.3166 48.3705 56.4196C46.3478 55.505 44.7472 54.1594 43.5688 52.383C42.4079 50.5889 41.8275 48.3551 41.8275 45.6816C41.8275 43.4303 42.2408 41.5395 43.0675 40.0093C43.8942 38.479 45.0198 37.2478 46.4445 36.3156C47.8692 35.3834 49.4874 34.6799 51.299 34.205C53.1283 33.7301 55.0454 33.3959 57.0505 33.2024C59.4074 32.9562 61.307 32.7275 62.7493 32.5165C64.1916 32.2878 65.2381 31.9536 65.8889 31.5139C66.5397 31.0742 66.8651 30.4234 66.8651 29.5616V29.4033C66.8651 27.7323 66.3374 26.4395 65.2821 25.5249C64.2443 24.6103 62.7669 24.153 60.8497 24.153C58.827 24.153 57.2176 24.6015 56.0216 25.4986C54.8256 26.378 54.0341 27.4861 53.6471 28.8228L43.2522 27.9786C43.7798 25.5161 44.8176 23.3879 46.3654 21.5938C47.9132 19.7822 49.9095 18.3927 52.3544 17.4253C54.8168 16.4403 57.6662 15.9479 60.9025 15.9479C63.1538 15.9479 65.3085 16.2117 67.3664 16.7394C69.4418 17.267 71.2798 18.0849 72.8804 19.193C74.4986 20.3011 75.7738 21.7258 76.706 23.467C77.6382 25.1907 78.1043 27.2574 78.1043 29.6671V57H67.4455V51.3804H67.1289C66.4781 52.6468 65.6075 53.7637 64.517 54.7311C63.4265 55.6808 62.1161 56.4284 60.5859 56.9736C59.0557 57.5013 57.288 57.7651 55.2829 57.7651ZM58.5016 50.0085C60.155 50.0085 61.6148 49.6831 62.8812 49.0323C64.1476 48.3639 65.1414 47.4669 65.8625 46.3412C66.5837 45.2155 66.9442 43.9404 66.9442 42.5157V38.2152C66.5924 38.4439 66.1088 38.6549 65.4931 38.8484C64.8951 39.0243 64.218 39.1914 63.4616 39.3497C62.7053 39.4904 61.949 39.6223 61.1927 39.7454C60.4364 39.851 59.7504 39.9477 59.1348 40.0357C57.8157 40.2291 56.6636 40.5369 55.6786 40.9591C54.6937 41.3812 53.9285 41.9528 53.3833 42.674C52.838 43.3775 52.5654 44.257 52.5654 45.3123C52.5654 46.8425 53.1195 48.0121 54.2276 48.8212C55.3532 49.6127 56.7779 50.0085 58.5016 50.0085ZM120.542 28.0313L110.252 28.6645C110.076 27.7851 109.698 26.9936 109.118 26.29C108.537 25.5689 107.772 24.9973 106.822 24.5751C105.89 24.1354 104.773 23.9156 103.472 23.9156C101.73 23.9156 100.262 24.2849 99.0657 25.0237C97.8696 25.7448 97.2716 26.7122 97.2716 27.9258C97.2716 28.8932 97.6586 29.7111 98.4325 30.3794C99.2064 31.0478 100.534 31.5843 102.416 31.9888L109.751 33.4663C113.691 34.2753 116.628 35.5769 118.563 37.371C120.498 39.165 121.465 41.5219 121.465 44.4416C121.465 47.0975 120.682 49.428 119.117 51.4332C117.569 53.4383 115.441 55.0037 112.732 56.1294C110.041 57.2374 106.937 57.7915 103.419 57.7915C98.0543 57.7915 93.7803 56.6746 90.5967 54.4408C87.4307 52.1895 85.5751 49.129 85.0299 45.2595L96.0844 44.6791C96.4186 46.3148 97.2277 47.5636 98.5116 48.4255C99.7956 49.2697 101.44 49.6919 103.445 49.6919C105.415 49.6919 106.998 49.3137 108.194 48.5574C109.408 47.7835 110.023 46.7897 110.041 45.5761C110.023 44.556 109.593 43.7205 108.748 43.0697C107.904 42.4013 106.602 41.8913 104.844 41.5395L97.8257 40.1412C93.8682 39.3497 90.9221 37.9778 88.9873 36.0254C87.0701 34.0731 86.1116 31.5843 86.1116 28.559C86.1116 25.9559 86.8151 23.7133 88.2222 21.8313C89.6469 19.9493 91.6432 18.4982 94.2112 17.4781C96.7967 16.4579 99.822 15.9479 103.287 15.9479C108.405 15.9479 112.433 17.0296 115.37 19.193C118.325 21.3564 120.049 24.3025 120.542 28.0313ZM139.781 33.5718V57H128.542V2.96736H139.465V23.6253H139.94C140.854 21.2333 142.332 19.3601 144.372 18.0057C146.412 16.6338 148.972 15.9479 152.05 15.9479C154.864 15.9479 157.317 16.5635 159.41 17.7947C161.521 19.0083 163.157 20.7584 164.318 23.0449C165.496 25.3139 166.077 28.0313 166.059 31.1973V57H154.82V33.2024C154.837 30.7048 154.204 28.7613 152.92 27.3718C151.654 25.9822 149.877 25.2875 147.591 25.2875C146.061 25.2875 144.706 25.6129 143.528 26.2637C142.367 26.9144 141.452 27.8642 140.784 29.113C140.133 30.3443 139.799 31.8305 139.781 33.5718ZM186.46 57.7651C183.874 57.7651 181.57 57.3166 179.547 56.4196C177.525 55.505 175.924 54.1594 174.746 52.383C173.585 50.5889 173.004 48.3551 173.004 45.6816C173.004 43.4303 173.418 41.5395 174.244 40.0093C175.071 38.479 176.197 37.2478 177.621 36.3156C179.046 35.3834 180.664 34.6799 182.476 34.205C184.305 33.7301 186.222 33.3959 188.227 33.2024C190.584 32.9562 192.484 32.7275 193.926 32.5165C195.368 32.2878 196.415 31.9536 197.066 31.5139C197.717 31.0742 198.042 30.4234 198.042 29.5616V29.4033C198.042 27.7323 197.514 26.4395 196.459 25.5249C195.421 24.6103 193.944 24.153 192.027 24.153C190.004 24.153 188.395 24.6015 187.198 25.4986C186.002 26.378 185.211 27.4861 184.824 28.8228L174.429 27.9786C174.957 25.5161 175.994 23.3879 177.542 21.5938C179.09 19.7822 181.086 18.3927 183.531 17.4253C185.994 16.4403 188.843 15.9479 192.079 15.9479C194.331 15.9479 196.485 16.2117 198.543 16.7394C200.619 17.267 202.457 18.0849 204.057 19.193C205.675 20.3011 206.951 21.7258 207.883 23.467C208.815 25.1907 209.281 27.2574 209.281 29.6671V57H198.622V51.3804H198.306C197.655 52.6468 196.784 53.7637 195.694 54.7311C194.603 55.6808 193.293 56.4284 191.763 56.9736C190.233 57.5013 188.465 57.7651 186.46 57.7651ZM189.679 50.0085C191.332 50.0085 192.792 49.6831 194.058 49.0323C195.324 48.3639 196.318 47.4669 197.039 46.3412C197.761 45.2155 198.121 43.9404 198.121 42.5157V38.2152C197.769 38.4439 197.286 38.6549 196.67 38.8484C196.072 39.0243 195.395 39.1914 194.639 39.3497C193.882 39.4904 193.126 39.6223 192.37 39.7454C191.613 39.851 190.927 39.9477 190.312 40.0357C188.993 40.2291 187.84 40.5369 186.856 40.9591C185.871 41.3812 185.105 41.9528 184.56 42.674C184.015 43.3775 183.742 44.257 183.742 45.3123C183.742 46.8425 184.296 48.0121 185.404 48.8212C186.53 49.6127 187.955 50.0085 189.679 50.0085Z" fill="black"/>
<path d="M268.914 28.0313L258.624 28.6645C258.448 27.7851 258.07 26.9936 257.49 26.29C256.909 25.5689 256.144 24.9973 255.194 24.5751C254.262 24.1354 253.145 23.9156 251.844 23.9156C250.102 23.9156 248.634 24.2849 247.438 25.0237C246.242 25.7448 245.644 26.7122 245.644 27.9258C245.644 28.8932 246.031 29.7111 246.805 30.3794C247.578 31.0478 248.906 31.5843 250.788 31.9888L258.123 33.4663C262.063 34.2753 265 35.5769 266.935 37.371C268.87 39.165 269.837 41.5219 269.837 44.4416C269.837 47.0975 269.054 49.428 267.489 51.4332C265.941 53.4383 263.813 55.0037 261.104 56.1294C258.413 57.2374 255.309 57.7915 251.791 57.7915C246.426 57.7915 242.152 56.6746 238.969 54.4408C235.803 52.1895 233.947 49.129 233.402 45.2595L244.456 44.6791C244.791 46.3148 245.6 47.5636 246.884 48.4255C248.168 49.2697 249.812 49.6919 251.817 49.6919C253.787 49.6919 255.37 49.3137 256.566 48.5574C257.78 47.7835 258.396 46.7897 258.413 45.5761C258.396 44.556 257.965 43.7205 257.12 43.0697C256.276 42.4013 254.975 41.8913 253.216 41.5395L246.198 40.1412C242.24 39.3497 239.294 37.9778 237.359 36.0254C235.442 34.0731 234.484 31.5843 234.484 28.559C234.484 25.9559 235.187 23.7133 236.594 21.8313C238.019 19.9493 240.015 18.4982 242.583 17.4781C245.169 16.4579 248.194 15.9479 251.659 15.9479C256.777 15.9479 260.805 17.0296 263.743 19.193C266.697 21.3564 268.421 24.3025 268.914 28.0313ZM295.224 57.7915C291.126 57.7915 287.582 56.9209 284.592 55.1796C281.619 53.4207 279.324 50.9759 277.706 47.8451C276.088 44.6967 275.279 41.047 275.279 36.8961C275.279 32.7099 276.088 29.0515 277.706 25.9207C279.324 22.7723 281.619 20.3275 284.592 18.5862C287.582 16.8273 291.126 15.9479 295.224 15.9479C299.322 15.9479 302.858 16.8273 305.83 18.5862C308.82 20.3275 311.124 22.7723 312.743 25.9207C314.361 29.0515 315.17 32.7099 315.17 36.8961C315.17 41.047 314.361 44.6967 312.743 47.8451C311.124 50.9759 308.82 53.4207 305.83 55.1796C302.858 56.9209 299.322 57.7915 295.224 57.7915ZM295.277 49.0851C297.141 49.0851 298.698 48.5574 299.947 47.5021C301.196 46.4292 302.137 44.9693 302.77 43.1225C303.421 41.2757 303.746 39.1738 303.746 36.8169C303.746 34.46 303.421 32.3582 302.77 30.5113C302.137 28.6645 301.196 27.2047 299.947 26.1317C298.698 25.0588 297.141 24.5224 295.277 24.5224C293.395 24.5224 291.812 25.0588 290.528 26.1317C289.262 27.2047 288.303 28.6645 287.652 30.5113C287.019 32.3582 286.702 34.46 286.702 36.8169C286.702 39.1738 287.019 41.2757 287.652 43.1225C288.303 44.9693 289.262 46.4292 290.528 47.5021C291.812 48.5574 293.395 49.0851 295.277 49.0851ZM344.27 16.4755V24.9181H319.259V16.4755H344.27ZM324.984 57V13.547C324.984 10.6097 325.556 8.17363 326.699 6.23887C327.86 4.3041 329.443 2.85303 331.448 1.88565C333.453 0.91827 335.731 0.434579 338.281 0.434579C340.005 0.434579 341.579 0.566496 343.004 0.830329C344.446 1.09416 345.519 1.33161 346.223 1.54267L344.218 9.98527C343.778 9.84456 343.233 9.71265 342.582 9.58952C341.949 9.4664 341.298 9.40484 340.63 9.40484C338.976 9.40484 337.824 9.7918 337.173 10.5657C336.523 11.322 336.197 12.3861 336.197 13.7581V57H324.984ZM372.692 16.4755V24.9181H348.287V16.4755H372.692ZM353.828 6.76653H365.067V44.5472C365.067 45.5849 365.225 46.394 365.542 46.9744C365.858 47.5373 366.298 47.933 366.861 48.1617C367.441 48.3903 368.11 48.5046 368.866 48.5046C369.394 48.5046 369.921 48.4607 370.449 48.3727C370.977 48.2672 371.381 48.188 371.663 48.1353L373.43 56.4987C372.868 56.6746 372.076 56.8769 371.056 57.1055C370.036 57.3518 368.796 57.5013 367.336 57.554C364.627 57.6596 362.253 57.299 360.212 56.4723C358.19 55.6457 356.616 54.3617 355.49 52.6204C354.364 50.8791 353.81 48.6805 353.828 46.0246V6.76653Z" fill="#4A3AFF"/>
</svg>
